<?xml version="1.0" encoding="utf-8"?>
<!-- Generator: Adobe Illustrator 25.2.1, SVG Export Plug-In . SVG Version: 6.00 Build 0)  -->
<svg version="1.1" id="Capa_1" xmlns="http://www.w3.org/2000/svg" xmlns:xlink="http://www.w3.org/1999/xlink" x="0px" y="0px"
	 viewBox="0 0 321.8 292.5" style="enable-background:new 0 0 321.8 292.5;" xml:space="preserve">
<style type="text/css">
	.st0{stroke:#000000;stroke-width:2;stroke-miterlimit:10;}
</style>
<g>
	<path class="st0" d="M286.9,86.1c-2,5.9-3.3,10.7-5.1,15.3c-2.8,7.4-9,12.3-14.8,17.1c-11.4,9.5-23.9,17.5-37.8,23.2
		c-2,0.8-4.1,1.3-6,2.2c-7.7,3.8-13.8,1.2-19.4-4.4c-8.6-8.7-17.8-16.8-28.5-22.8c-12.6-7-26.1-9.2-40.4-7.2
		c-9.8,1.4-18.8,4.5-27.3,9.5c-9,5.3-13.8,12.8-14,23.5c-0.2,12.5,1,24.6,7.4,35.7c5.2,9,14.9,11.6,23.6,6.1
		c5.9-3.7,6.6-9.7,5.8-15.9c-1-6.9-2.5-13.7-3.7-20.6c-0.4-2.1-0.5-4.2-0.2-6.3c0.5-3.4,2.3-5.9,6-6.1c14.1-0.6,27.4,1.8,38.7,11
		c9.2,7.5,14,17.4,15.3,29c2.4,22.1-5.3,40.8-20.7,56.2c-6.5,6.5-15.3,10.2-24.2,13c-15.4,5-31.2,7.6-47.5,7
		C62.2,250.4,39.5,235,25,206.9c-9.4-18.3-12.9-38-13.4-58.5c-0.8-32.4,6-63.1,20.2-92.1c4.5-9.1,10-17.8,15.8-26.2
		c5.4-7.7,14-11,22.7-13.6c18.3-5.6,37.1-6.6,56.2-5.6c34.9,2,67.8,11.2,99.1,26.1c21.2,10.1,40.5,23.2,58.7,38
		c12.4,10.1,22.4,21.4,26.4,37.3c4.2,16.7,3.6,33.4,0.3,50c-5.1,25.5-15.5,48.9-28.5,71.2c-6.8,11.6-14,22.9-21.4,34.2
		c-1.5,2.4-4.1,4.5-6.6,5.7c-16,7.3-32.1,14.5-49.8,16.8c-6,0.8-12,0.5-17.6-2.1c-6.6-3-10.2-8-9.1-15.1c1.8-11.4,4.5-22.7,6.8-34
		c0.6-3.1,2.9-1.9,4.8-1.5c2.2,0.4,2.6,1.5,2.1,3.7c-2.3,10-4.5,19.9-6.3,30c-1.2,6.9,1.2,10,8,11.5c8.9,2,17.4-0.2,25.7-3
		c8.9-3,17.3-7.7,26.4-10.2c6.8-1.9,10.2-6.6,13.6-11.8c16.2-23.8,30.2-48.7,39.4-76.1c5.5-16.4,8.9-33.2,7.9-50.7
		c-0.8-13.4-4-26.1-12.4-37C292.1,91.4,289.7,89.2,286.9,86.1z M18.7,144.1c0.2,23.9,4.1,47.8,18.4,69c10.7,16,25.3,26.4,44.3,29.9
		c19.5,3.6,38.7,1,57.5-5.2c8.6-2.8,17-6.2,23.4-12.8c11.4-11.7,17.2-25.9,17.7-42.1c0.2-7.8-1.4-15.5-5.9-22.4
		c-9-13.7-22.4-17.8-37.7-18.1c-2.8,0-3.1,1.4-2.7,3.6c1,5.2,2.1,10.5,3.1,15.8c1.4,7.2,1.9,14.4-1.5,21.2
		c-6,11.9-24.9,15.1-34.5,5.9c-2.7-2.6-5.4-5.7-7-9.1c-7.5-15.1-9.8-31.1-5.6-47.5c1.1-4.4,3.9-8.6,6.8-12.1
		c6-7,14.1-10.9,22.7-13.9c26.7-9.1,51.4-5.4,73.5,12.3c6.1,4.9,12,10.2,17.6,15.6c4,3.9,7.9,4.7,13.1,2.7
		c15.8-6.3,29.9-15.1,42.9-26.1c8.3-6.9,12.5-15.5,14.4-25.8c0.6-3,0.1-5-2.5-6.7c-11.7-8-23-16.6-35-24.2
		c-15.6-9.9-32.6-17.2-50.1-23.1c-21.7-7.2-44-11.8-66.9-12.9c-17.6-0.9-34.9,0.3-51.8,5.2c-11,3.2-19.9,9-25.3,19.5
		c-2.4,4.6-5.3,9-7.7,13.6C26.1,83.7,19,112.4,18.7,144.1z"/>
	<path class="st0" d="M262.5,173.9c3.2-1,4.2,0.2,4.2,3c-0.1,5.8,0.1,11.7-0.1,17.5c0,1.1-1.3,2.2-2,3.3c-0.7-1.1-2-2.1-2.1-3.2
		C262.4,187.6,262.5,180.9,262.5,173.9z"/>
</g>
</svg>
