<?xml version="1.0" encoding="utf-8"?>
<!-- Generator: Adobe Illustrator 25.2.1, SVG Export Plug-In . SVG Version: 6.00 Build 0)  -->
<svg version="1.1" id="Capa_1" xmlns="http://www.w3.org/2000/svg" xmlns:xlink="http://www.w3.org/1999/xlink" x="0px" y="0px"
	 viewBox="0 0 841.89 595.28" style="enable-background:new 0 0 841.89 595.28;" xml:space="preserve">
<style type="text/css">
	.st0{fill:#FFFFFF;}
</style>
<g>
	<path class="st0" d="M581.82,443.89c-107.25,0-214.5,0-321.75,0c0-97.5,0-195,0-292.5c107.25,0,214.5,0,321.75,0
		C581.82,248.89,581.82,346.39,581.82,443.89z M546.9,237.24c2.77,3.02,5.21,5.33,7.26,7.95c8.49,10.83,11.64,23.57,12.44,36.96
		c1.05,17.43-2.36,34.25-7.87,50.67c-9.19,27.4-23.27,52.3-39.44,76.11c-3.49,5.15-6.81,9.82-13.65,11.75
		c-9.02,2.56-17.43,7.21-26.35,10.23c-8.24,2.79-16.77,5.03-25.66,2.99c-6.76-1.56-9.19-4.67-7.96-11.52
		c1.81-10.04,4.06-20,6.34-29.95c0.52-2.26,0.07-3.32-2.11-3.73c-1.86-0.35-4.13-1.61-4.79,1.51c-2.37,11.33-5.08,22.61-6.83,34.03
		c-1.09,7.14,2.53,12.04,9.14,15.09c5.63,2.6,11.57,2.9,17.58,2.12c17.68-2.31,33.75-9.52,49.75-16.81
		c2.56-1.17,5.08-3.33,6.62-5.69c7.34-11.26,14.63-22.57,21.39-34.19c12.97-22.29,23.37-45.7,28.46-71.16
		c3.33-16.66,3.93-33.32-0.27-50.02c-4.01-15.92-13.94-27.26-26.36-37.31c-18.26-14.77-37.53-27.88-58.73-37.97
		c-31.38-14.92-64.29-24.13-99.14-26.1c-19.07-1.08-37.88,0-56.22,5.57c-8.63,2.62-17.31,5.89-22.67,13.6
		c-5.82,8.36-11.37,17.05-15.84,26.18c-14.21,29.01-21.07,59.74-20.24,92.15c0.52,20.45,4.02,40.16,13.42,58.48
		c14.41,28.07,37.21,43.49,69.06,44.67c16.23,0.6,32.05-2.05,47.46-7.05c8.84-2.87,17.63-6.5,24.17-13.05
		c15.36-15.41,23.15-34.07,20.7-56.18c-1.28-11.58-6.12-21.52-15.29-28.97c-11.28-9.17-24.57-11.58-38.66-10.96
		c-3.73,0.16-5.55,2.71-6.05,6.06c-0.3,2.05-0.14,4.24,0.21,6.3c1.16,6.88,2.75,13.69,3.7,20.59c0.85,6.14,0.18,12.13-5.76,15.87
		c-8.8,5.53-18.4,2.89-23.65-6.11c-6.48-11.11-7.67-23.19-7.43-35.71c0.2-10.65,5.03-18.21,14.01-23.48
		c8.48-4.98,17.5-8.15,27.31-9.51c14.34-2,27.79,0.18,40.44,7.18c10.8,5.97,19.94,14.04,28.55,22.77
		c5.54,5.61,11.66,8.24,19.37,4.41c1.88-0.94,4-1.41,5.96-2.21c13.86-5.65,26.34-13.68,37.78-23.17
		c5.77-4.78,11.94-9.62,14.76-17.06C543.55,247.92,544.94,243.16,546.9,237.24z M522.5,324.98c0,6.97-0.1,13.78,0.1,20.58
		c0.03,1.1,1.34,2.16,2.06,3.24c0.68-1.1,1.92-2.19,1.96-3.31c0.18-5.82,0-11.66,0.08-17.49
		C526.72,325.23,525.75,324.02,522.5,324.98z"/>
	<path d="M546.9,237.24c-1.96,5.91-3.35,10.68-5.11,15.31c-2.82,7.44-9,12.27-14.76,17.06c-11.44,9.49-23.92,17.52-37.78,23.17
		c-1.96,0.8-4.07,1.27-5.96,2.21c-7.7,3.83-13.83,1.2-19.37-4.41c-8.61-8.72-17.76-16.8-28.55-22.77
		c-12.65-6.99-26.1-9.18-40.44-7.18c-9.81,1.37-18.83,4.54-27.31,9.51c-8.98,5.27-13.81,12.83-14.01,23.48
		c-0.24,12.52,0.95,24.61,7.43,35.71c5.25,9,14.86,11.64,23.65,6.11c5.94-3.73,6.61-9.72,5.76-15.87c-0.95-6.9-2.54-13.71-3.7-20.59
		c-0.35-2.06-0.51-4.25-0.21-6.3c0.5-3.35,2.33-5.9,6.05-6.06c14.08-0.61,27.38,1.79,38.66,10.96c9.17,7.46,14.01,17.39,15.29,28.97
		c2.44,22.11-5.34,40.77-20.7,56.18c-6.54,6.55-15.33,10.18-24.17,13.05c-15.42,5.01-31.23,7.65-47.46,7.05
		c-31.85-1.18-54.64-16.6-69.06-44.67c-9.41-18.32-12.9-38.04-13.42-58.48c-0.82-32.42,6.03-63.14,20.24-92.15
		c4.47-9.13,10.03-17.82,15.84-26.18c5.36-7.71,14.04-10.98,22.67-13.6c18.34-5.57,37.14-6.65,56.22-5.57
		c34.85,1.97,67.76,11.18,99.14,26.1c21.21,10.09,40.47,23.2,58.73,37.97c12.42,10.05,22.36,21.39,26.36,37.31
		c4.2,16.7,3.6,33.36,0.27,50.02c-5.09,25.46-15.49,48.86-28.46,71.16c-6.76,11.61-14.05,22.93-21.39,34.19
		c-1.54,2.36-4.06,4.52-6.62,5.69c-16,7.29-32.06,14.5-49.75,16.81c-6.01,0.78-11.95,0.49-17.58-2.12
		c-6.6-3.05-10.23-7.95-9.14-15.09c1.75-11.43,4.45-22.71,6.83-34.03c0.65-3.12,2.92-1.86,4.79-1.51c2.18,0.41,2.63,1.47,2.11,3.73
		c-2.28,9.95-4.54,19.91-6.34,29.95c-1.23,6.85,1.21,9.97,7.96,11.52c8.89,2.05,17.42-0.19,25.66-2.99
		c8.92-3.03,17.33-7.68,26.35-10.23c6.84-1.94,10.16-6.61,13.65-11.75c16.16-23.81,30.25-48.71,39.44-76.11
		c5.51-16.42,8.92-33.24,7.87-50.67c-0.8-13.4-3.95-26.13-12.44-36.96C552.11,242.58,549.67,240.26,546.9,237.24z M278.73,295.28
		c0.24,23.86,4.12,47.8,18.42,69.04c10.74,15.95,25.31,26.41,44.27,29.92c19.55,3.62,38.73,1.01,57.45-5.2
		c8.56-2.83,16.95-6.22,23.39-12.83c11.35-11.67,17.25-25.9,17.7-42.06c0.22-7.83-1.4-15.52-5.91-22.43
		c-8.96-13.72-22.35-17.78-37.66-18.08c-2.75-0.05-3.13,1.44-2.7,3.61c1.04,5.25,2.15,10.5,3.15,15.76
		c1.37,7.21,1.91,14.44-1.54,21.23c-6.02,11.86-24.9,15.09-34.5,5.85c-2.74-2.64-5.37-5.73-7.03-9.11
		c-7.46-15.13-9.77-31.12-5.6-47.55c1.11-4.36,3.86-8.64,6.83-12.12c5.97-6.99,14.13-10.93,22.71-13.85
		c26.69-9.08,51.35-5.39,73.53,12.27c6.13,4.88,11.97,10.16,17.61,15.61c3.99,3.85,7.9,4.73,13.11,2.66
		c15.81-6.28,29.9-15.15,42.93-26.06c8.26-6.93,12.46-15.54,14.43-25.78c0.58-2.98,0.08-4.96-2.45-6.7
		c-11.68-8.04-23.04-16.59-35-24.19c-15.63-9.92-32.6-17.2-50.15-23.06c-21.73-7.25-43.98-11.78-66.92-12.94
		c-17.56-0.89-34.85,0.29-51.79,5.19c-10.98,3.17-19.9,8.96-25.27,19.48c-2.37,4.64-5.34,8.98-7.72,13.62
		C286.08,234.75,278.98,263.64,278.73,295.28z"/>
	<path d="M522.5,324.98c3.25-0.96,4.22,0.24,4.19,3.02c-0.08,5.83,0.11,11.66-0.08,17.49c-0.04,1.12-1.27,2.21-1.96,3.31
		c-0.72-1.08-2.02-2.14-2.06-3.24C522.4,338.76,522.5,331.95,522.5,324.98z"/>
	<path class="st0" d="M278.73,295.28c0.25-31.64,7.35-60.53,21.28-87.72c2.38-4.64,5.34-8.98,7.72-13.62
		c5.38-10.52,14.3-16.31,25.27-19.48c16.94-4.9,34.23-6.08,51.79-5.19c22.94,1.16,45.19,5.69,66.92,12.94
		c17.55,5.86,34.52,13.14,50.15,23.06c11.96,7.59,23.32,16.14,35,24.19c2.52,1.74,3.02,3.72,2.45,6.7
		c-1.97,10.23-6.17,18.85-14.43,25.78c-13.03,10.92-27.12,19.79-42.93,26.06c-5.22,2.07-9.13,1.19-13.11-2.66
		c-5.64-5.45-11.48-10.73-17.61-15.61c-22.19-17.67-46.85-21.36-73.53-12.27c-8.58,2.92-16.74,6.86-22.71,13.85
		c-2.97,3.48-5.72,7.76-6.83,12.12c-4.17,16.44-1.86,32.42,5.6,47.55c1.67,3.38,4.29,6.46,7.03,9.11c9.6,9.24,28.48,6.01,34.5-5.85
		c3.45-6.79,2.91-14.02,1.54-21.23c-1-5.26-2.11-10.5-3.15-15.76c-0.43-2.17-0.05-3.67,2.7-3.61c15.31,0.3,28.7,4.36,37.66,18.08
		c4.51,6.91,6.13,14.6,5.91,22.43c-0.45,16.16-6.35,30.39-17.7,42.06c-6.43,6.62-14.83,10-23.39,12.83
		c-18.73,6.21-37.91,8.82-57.45,5.2c-18.96-3.51-33.53-13.97-44.27-29.92C282.84,343.08,278.97,319.14,278.73,295.28z"/>
</g>
</svg>
